<?xml version="1.0" standalone="no"?>
<svg xmlns="http://www.w3.org/2000/svg" viewBox="0 0 130 51" width="130" height="51"><g fill="#a8a7a7" color="#a8a7a7" transform="translate(42.524 0) scale(0.44) "><svg width="100.0" height="57.0" x="0.0" y="0.0" viewBox="0 0 100 57"><title></title><desc></desc><g stroke="none" stroke-width="1" fill="none" fill-rule="evenodd"><path d="M88.6719403,51.5411735 L88.6719403,48.1929432 L88.6719403,3.0479966 C88.6719403,1.62840431 87.527185,0.478869144 86.1147623,0.478869144 L13.8517793,0.478869144 C12.4393566,0.478869144 11.2946012,1.62840431 11.2946012,3.0479966 L11.2946012,48.1905533 L11.2946012,48.1929432 L11.2946012,51.5387836 L0,51.5387836 L0,54.8989633 C0,55.7951706 0.728915231,56.5240858 1.62512248,56.5240858 L98.3772674,56.5240858 C99.2734747,56.5240858 100,55.7951706 100,54.8989633 L100,51.5411735 L88.6719403,51.5411735 Z M21.5262358,6.80963116 L40.2458524,6.80963116 L40.2458524,9.28366726 L21.5262358,9.28366726 L21.5262358,6.80963116 Z M21.5262358,11.1391943 L48.6696798,11.1391943 L48.6696798,13.6132304 L21.5262358,13.6132304 L21.5262358,11.1391943 Z M21.5262358,27.5296835 L48.6696798,27.5296835 L48.6696798,30.0037196 L21.5262358,30.0037196 L21.5262358,27.5296835 Z M43.4838027,23.5093748 L70.6272467,23.5093748 L70.6272467,25.9834109 L43.4838027,25.9834109 L43.4838027,23.5093748 Z M21.5262358,15.4687575 L35.0979578,15.4687575 L35.0979578,17.9427936 L21.5262358,17.9427936 L21.5262358,15.4687575 Z M36.9319369,15.4687575 L57.0555247,15.4687575 L57.0555247,17.9427936 L36.9319369,17.9427936 L36.9319369,15.4687575 Z M21.5262358,19.4890661 L31.5880297,19.4890661 L31.5880297,21.9631022 L21.5262358,21.9631022 L21.5262358,19.4890661 Z M51.5376461,19.4890661 L61.59944,19.4890661 L61.59944,21.9631022 L51.5376461,21.9631022 L51.5376461,19.4890661 Z M33.4220088,19.4890661 L49.8630215,19.4890661 L49.8630215,21.9631022 L33.4220088,21.9631022 L33.4220088,19.4890661 Z M21.5262358,23.5093748 L41.6498236,23.5093748 L41.6498236,25.9834109 L21.5262358,25.9834109 L21.5262358,23.5093748 Z M16.9222968,11.1391943 L19.3961638,11.1391943 L19.3961638,13.6132304 L16.9222968,13.6132304 L16.9222968,11.1391943 Z M16.9222968,15.4687575 L19.3961638,15.4687575 L19.3961638,17.9427936 L16.9222968,17.9427936 L16.9222968,15.4687575 Z M16.9222968,19.4890661 L19.3961638,19.4890661 L19.3961638,21.9631022 L16.9222968,21.9631022 L16.9222968,19.4890661 Z M16.9222968,23.5093748 L19.3961638,23.5093748 L19.3961638,25.9834109 L16.9222968,25.9834109 L16.9222968,23.5093748 Z M16.9222968,27.5296835 L19.3961638,27.5296835 L19.3961638,30.0037196 L16.9222968,30.0037196 L16.9222968,27.5296835 Z M21.5262358,39.5906094 L48.6696798,39.5906094 L48.6696798,42.0646455 L21.5262358,42.0646455 L21.5262358,39.5906094 Z M43.4838027,35.5703008 L70.6272467,35.5703008 L70.6272467,38.0443369 L43.4838027,38.0443369 L43.4838027,35.5703008 Z M21.5262358,31.5499921 L31.5880297,31.5499921 L31.5880297,34.0240282 L21.5262358,34.0240282 L21.5262358,31.5499921 Z M51.5376461,31.5499921 L61.59944,31.5499921 L61.59944,34.0240282 L51.5376461,34.0240282 L51.5376461,31.5499921 Z M33.4220088,31.5499921 L49.8630215,31.5499921 L49.8630215,34.0240282 L33.4220088,34.0240282 L33.4220088,31.5499921 Z M21.5262358,35.5703008 L41.6498236,35.5703008 L41.6498236,38.0443369 L21.5262358,38.0443369 L21.5262358,35.5703008 Z M16.9222968,31.5499921 L19.3961638,31.5499921 L19.3961638,34.0240282 L16.9222968,34.0240282 L16.9222968,31.5499921 Z M21.5262358,43.6109181 L31.5880297,43.6109181 L31.5880297,46.0849542 L21.5262358,46.0849542 L21.5262358,43.6109181 Z M51.5376461,43.6109181 L61.59944,43.6109181 L61.59944,46.0849542 L51.5376461,46.0849542 L51.5376461,43.6109181 Z M33.4220088,43.6109181 L49.8630215,43.6109181 L49.8630215,46.0849542 L33.4220088,46.0849542 L33.4220088,43.6109181 Z M16.9222968,43.6109181 L19.3961638,43.6109181 L19.3961638,46.0849542 L16.9222968,46.0849542 L16.9222968,43.6109181 Z M16.9222968,35.5703008 L19.3961638,35.5703008 L19.3961638,38.0443369 L16.9222968,38.0443369 L16.9222968,35.5703008 Z M16.9222968,39.5906094 L19.3961638,39.5906094 L19.3961638,42.0646455 L16.9222968,42.0646455 L16.9222968,39.5906094 Z M16.9222968,6.80963116 L19.3961638,6.80963116 L19.3961638,9.28366726 L16.9222968,9.28366726 L16.9222968,6.80963116 Z M85.577038,48.4940688 L14.2365509,48.4940688 L14.2365509,3.65024787 L85.577038,3.65024787 L85.577038,48.4940688 L85.577038,48.4940688 Z" fill="currentColor"></path></g></svg></g><path fill="#9de0ad" fill-rule="nonzero" d="M7.13 4.44Q10.46 4.44 12.37 6.13Q14.28 7.82 14.28 11.06L14.28 11.06Q14.28 14.30 12.37 16.00Q10.46 17.69 7.13 17.69L7.13 17.69Q3.79 17.69 1.90 16.01Q0 14.33 0 11.06L0 11.06Q0 7.80 1.90 6.12Q3.79 4.44 7.13 4.44L7.13 4.44ZM7.13 7.68Q4.78 7.68 4.78 10.39L4.78 10.39L4.78 11.76Q4.78 14.45 7.13 14.45L7.13 14.45Q9.50 14.45 9.50 11.76L9.50 11.76L9.50 10.39Q9.50 7.68 7.13 7.68L7.13 7.68ZM21.38 5.90Q22.75 4.44 24.94 4.44L24.94 4.44Q27.50 4.44 28.90 6.11Q30.29 7.78 30.29 11.04L30.29 11.04Q30.29 14.33 28.90 16.01Q27.50 17.69 24.94 17.69L24.94 17.69Q22.30 17.69 20.90 15.60L20.90 15.60L20.50 17.40L16.61 17.40L16.61 0L21.38 0L21.38 5.90ZM23.45 7.97Q22.39 7.97 21.86 8.72Q21.34 9.48 21.34 10.68L21.34 10.68L21.34 11.47Q21.34 12.67 21.86 13.42Q22.39 14.16 23.45 14.16L23.45 14.16Q25.51 14.16 25.51 11.71L25.51 11.71L25.51 10.44Q25.51 7.97 23.45 7.97L23.45 7.97ZM38.62 4.44Q41.16 4.44 42.92 5.44Q44.69 6.43 44.69 8.52L44.69 8.52L40.25 8.52Q40.25 7.82 39.62 7.54L39.62 7.54Q39.19 7.30 38.54 7.30L38.54 7.30Q36.82 7.30 36.82 8.11L36.82 8.11Q36.82 8.57 37.42 8.76Q38.02 8.95 39.38 9.17L39.38 9.17Q41.06 9.41 42.19 9.73Q43.32 10.06 44.16 10.88Q45 11.71 45 13.20L45 13.20Q45 15.62 43.19 16.66Q41.38 17.69 38.45 17.69L38.45 17.69Q36.77 17.69 35.28 17.22Q33.79 16.75 32.86 15.77Q31.92 14.78 31.92 13.27L31.92 13.27L36.36 13.27L36.36 13.37Q36.38 14.18 37.04 14.51Q37.70 14.83 38.45 14.83L38.45 14.83Q40.44 14.83 40.44 13.90L40.44 13.90Q40.44 13.42 39.82 13.20Q39.19 12.98 37.78 12.74L37.78 12.74Q36.07 12.46 34.98 12.12Q33.89 11.78 33.07 10.98Q32.26 10.18 32.26 8.74L32.26 8.74Q32.26 6.41 34.02 5.42Q35.78 4.44 38.62 4.44L38.62 4.44ZM53.02 4.73L55.70 4.73L55.70 7.97L53.02 7.97L53.02 12.79Q53.02 13.66 53.30 14.05Q53.59 14.45 54.36 14.45L54.36 14.45L55.70 14.45L55.70 17.26Q55.13 17.45 54.22 17.57Q53.30 17.69 52.63 17.69L52.63 17.69Q50.52 17.69 49.38 16.92Q48.24 16.15 48.24 14.30L48.24 14.30L48.24 7.97L46.46 7.97L46.46 4.73L48.43 4.73L49.46 0.89L53.02 0.89L53.02 4.73ZM62.86 17.40L58.08 17.40L58.08 0L62.86 0L62.86 17.40ZM82.46 17.40L77.81 17.40L75.84 10.34L75.74 10.34L73.75 17.40L69.10 17.40L64.46 4.73L69.60 4.73L71.52 12.22L71.69 12.22L73.68 4.73L78.43 4.73L80.35 12.22L80.52 12.22L82.46 4.73L87.12 4.73L82.46 17.40ZM94.56 4.44Q97.46 4.44 99.29 5.41Q101.11 6.38 101.11 8.57L101.11 8.57L101.11 13.51Q101.11 13.92 101.30 14.18Q101.50 14.45 101.88 14.45L101.88 14.45L102.74 14.45L102.74 17.21Q102.67 17.26 102.37 17.36Q102.07 17.47 101.52 17.58Q100.97 17.69 100.25 17.69L100.25 17.69Q98.86 17.69 97.96 17.27Q97.06 16.85 96.72 16.10L96.72 16.10Q95.81 16.82 94.68 17.26Q93.55 17.69 92.04 17.69L92.04 17.69Q87.58 17.69 87.58 14.14L87.58 14.14Q87.58 12.29 88.57 11.32Q89.57 10.34 91.44 9.98Q93.31 9.62 96.34 9.62L96.34 9.62L96.34 9.00Q96.34 8.26 95.82 7.87Q95.30 7.49 94.49 7.49L94.49 7.49Q93.74 7.49 93.20 7.75Q92.66 8.02 92.66 8.59L92.66 8.59L92.66 8.69L87.96 8.69Q87.94 8.57 87.94 8.35L87.94 8.35Q87.94 6.55 89.65 5.50Q91.37 4.44 94.56 4.44L94.56 4.44ZM96.34 11.88Q94.30 11.88 93.32 12.32Q92.35 12.77 92.35 13.51L92.35 13.51Q92.35 14.71 93.98 14.71L93.98 14.71Q94.92 14.71 95.63 14.21Q96.34 13.70 96.34 12.96L96.34 12.96L96.34 11.88ZM112.01 4.42Q112.56 4.42 112.99 4.55Q113.42 4.68 113.42 4.70L113.42 4.70L113.42 8.71L111.89 8.71Q110.40 8.71 109.74 9.48Q109.08 10.25 109.08 11.76L109.08 11.76L109.08 17.40L104.30 17.40L104.30 4.73L108.22 4.73L108.53 6.65Q108.96 5.54 109.90 4.98Q110.83 4.42 112.01 4.42L112.01 4.42ZM121.90 4.44Q125.38 4.44 127.21 6.07Q129.05 7.70 129.05 11.06L129.05 11.06L129.05 11.88L119.54 11.88Q119.54 13.25 120.16 13.94Q120.77 14.64 122.09 14.64L122.09 14.64Q123.29 14.64 123.85 14.14Q124.42 13.63 124.42 12.79L124.42 12.79L129.05 12.79Q129.05 15.10 127.30 16.39Q125.54 17.69 122.18 17.69L122.18 17.69Q118.66 17.69 116.71 16.04Q114.77 14.40 114.77 11.06L114.77 11.06Q114.77 7.80 116.66 6.12Q118.56 4.44 121.90 4.44L121.90 4.44ZM122.09 7.49Q119.83 7.49 119.57 9.62L119.57 9.62L124.22 9.62Q124.22 8.64 123.66 8.06Q123.10 7.49 122.09 7.49L122.09 7.49Z" transform="translate(0, 33.08)"></path></svg>